# xmcd
#
# Track frame offsets:
# 150
# 11435
# 21294
# 31040
# 42856
# 54678
# 65298
# 76649
# 88632
# 99558
# 109951
#
# Disc length: 1657 seconds
#
#
# Revision: 0
# Processed by: cddbd v1.4PL0 Copyright (c) Steve Scherf et al.
# Submitted via: FreeRIP 2.40 
#
DISCID=7a06770b
DTITLE=Wilson Pickett - An essenyial collection
DYEAR=2001
DGENRE=Blues
TTITLE0=If you need me
TTITLE1=I'm gonna love you
TTITLE2=Baby don't you weep
TTITLE3=Peace breaker
TTITLE4=I'm down to my last heartbreak
TTITLE5=Robert's monkey beat
TTITLE6=I can't stop
TTITLE7=I'll never be the same
TTITLE8=Baby call me
TTITLE9=Give your love right now
TTITLE10=It's too late
EXTD=
EXTT0=soul
EXTT1=soul
EXTT2=soul
EXTT3=soul
EXTT4=soul
EXTT5=soul
EXTT6=soul
EXTT7=soul
EXTT8=soul
EXTT9=soul
EXTT10=soul
PLAYORDER=
